<svg width="100" height="26" viewBox="0 0 100 26" fill="none" xmlns="http://www.w3.org/2000/svg">
<path fill-rule="evenodd" clip-rule="evenodd" d="M31.9919 19.9238L33.2399 17.0238C34.5879 18.0318 36.3839 18.5558 38.1559 18.5558C39.4639 18.5558 40.2919 18.0518 40.2919 17.2878C40.2719 15.1518 32.4559 16.8238 32.3959 11.4678C32.3759 8.74778 34.7919 6.65178 38.2159 6.65178C40.2519 6.65178 42.2839 7.15578 43.7359 8.30378L42.5679 11.2638C41.2399 10.4158 39.5879 9.81178 38.0159 9.81178C36.9479 9.81178 36.2439 10.3158 36.2439 10.9598C36.2639 13.0558 44.1399 11.9078 44.2199 17.0238C44.2199 19.8038 41.8639 21.7598 38.4799 21.7598C35.9999 21.7558 33.7239 21.1718 31.9919 19.9238V19.9238ZM79.9159 15.9758C79.2919 17.0638 78.1239 17.8078 76.7719 17.8078C74.7759 17.8078 73.1679 16.1958 73.1679 14.2038C73.1679 12.2118 74.7799 10.5998 76.7719 10.5998C78.1199 10.5998 79.2919 11.3438 79.9159 12.4318L83.3599 10.5198C82.0719 8.22378 79.5919 6.65178 76.7719 6.65178C72.5999 6.65178 69.2159 10.0358 69.2159 14.2078C69.2159 18.3798 72.5999 21.7638 76.7719 21.7638C79.6119 21.7638 82.0719 20.2118 83.3599 17.8958L79.9159 15.9758ZM45.9519 0.383789H50.2639V21.4758H45.9519V0.383789ZM85.0519 0.383789V21.4758H89.3639V15.1478L94.4799 21.4758H99.9999L93.4919 13.9598L99.5159 6.94778H94.2359L89.3599 12.7678V0.383789H85.0519Z" fill="black"/>
<path d="M63.076 16.0159C62.452 17.0439 61.164 17.8079 59.712 17.8079C57.716 17.8079 56.108 16.1959 56.108 14.2039C56.108 12.2119 57.72 10.5999 59.712 10.5999C61.164 10.5999 62.452 11.4039 63.076 12.4519V16.0159ZM63.076 6.95195V8.66395C62.372 7.47595 60.62 6.64795 58.784 6.64795C54.996 6.64795 52.016 9.99194 52.016 14.1839C52.016 18.3759 54.996 21.7599 58.784 21.7599C60.616 21.7599 62.368 20.9359 63.076 19.7439V21.4559H67.388V6.95195H63.076Z" fill="black"/>
<path fill-rule="evenodd" clip-rule="evenodd" d="M5.34002 15.9959C5.34002 17.4679 4.15202 18.6559 2.68002 18.6559C1.20802 18.6559 0.0200195 17.4639 0.0200195 15.9959C0.0200195 14.5279 1.20802 13.3359 2.68002 13.3359H5.34002V15.9959ZM6.66802 15.9959C6.66802 14.5239 7.85602 13.3359 9.32802 13.3359C10.8 13.3359 11.988 14.5239 11.988 15.9959V22.644C11.988 24.116 10.8 25.304 9.32802 25.304C7.85602 25.304 6.66802 24.116 6.66802 22.644V15.9959Z" fill="#E01E5A"/>
<path fill-rule="evenodd" clip-rule="evenodd" d="M9.328 5.32001C7.856 5.32001 6.668 4.13201 6.668 2.66001C6.668 1.188 7.856 0 9.328 0C10.8 0 11.988 1.188 11.988 2.66001V5.32001H9.328ZM9.328 6.66802C10.8 6.66802 11.988 7.85602 11.988 9.32802C11.988 10.8 10.8 11.988 9.328 11.988H2.66C1.188 11.988 0 10.796 0 9.32802C0 7.86002 1.188 6.66802 2.66 6.66802H9.328Z" fill="#36C5F0"/>
<path fill-rule="evenodd" clip-rule="evenodd" d="M19.984 9.32802C19.984 7.85602 21.172 6.66802 22.644 6.66802C24.116 6.66802 25.304 7.85602 25.304 9.32802C25.304 10.8 24.116 11.988 22.644 11.988H19.984V9.32802ZM18.656 9.32802C18.656 10.8 17.4681 11.988 15.9961 11.988C14.5241 11.988 13.3361 10.8 13.3361 9.32802V2.66001C13.3361 1.188 14.5241 0 15.9961 0C17.4681 0 18.656 1.188 18.656 2.66001V9.32802Z" fill="#2EB67D"/>
<path fill-rule="evenodd" clip-rule="evenodd" d="M15.9961 19.984C17.468 19.984 18.656 21.172 18.656 22.644C18.656 24.116 17.468 25.304 15.9961 25.304C14.5241 25.304 13.3361 24.116 13.3361 22.644V19.984H15.9961ZM15.9961 18.6559C14.5241 18.6559 13.3361 17.4679 13.3361 15.9959C13.3361 14.5239 14.5241 13.3359 15.9961 13.3359H22.664C24.136 13.3359 25.324 14.5239 25.324 15.9959C25.324 17.4679 24.136 18.6559 22.664 18.6559H15.9961Z" fill="#ECB22E"/>
</svg>
