<svg width="100" height="23" viewBox="0 0 100 23" fill="none" xmlns="http://www.w3.org/2000/svg">
<path d="M15.9463 0C15.967 7.19903e-07 25.9238 0.00102492 28.4072 0.665039C29.7819 1.03548 30.8622 2.11568 31.2275 3.48535C31.8922 5.97138 31.8926 11.1621 31.8926 11.1621C31.8926 11.1927 31.8902 16.3591 31.2275 18.8379C30.8572 20.2127 29.777 21.2939 28.4072 21.6592C25.9238 22.3232 15.967 22.3242 15.9463 22.3242C15.9463 22.3242 5.97649 22.3239 3.48535 21.6592C2.11053 21.2888 1.03028 20.2078 0.665039 18.8379C0.00315067 16.3621 1.14042e-05 11.2049 0 11.1621C0 11.1621 0.00033311 5.97138 0.665039 3.48535C1.03547 2.11069 2.1158 1.03035 3.48535 0.665039C5.97649 0.000332808 15.9463 0 15.9463 0ZM12.7598 15.9463L21.0449 11.1621L12.7598 6.37793V15.9463Z" fill="#FF0000"/>
<path fill-rule="evenodd" clip-rule="evenodd" d="M46.2914 20.3092C45.6623 19.8831 45.2107 19.2235 44.9469 18.3256C44.683 17.4275 44.546 16.2352 44.546 14.7435V12.7141C44.546 11.2073 44.6982 9.99985 45.0027 9.08644C45.3071 8.17329 45.7841 7.50872 46.4283 7.09259C47.0727 6.67659 47.92 6.46354 48.9702 6.46354C50.0053 6.46354 50.8323 6.67659 51.4562 7.10281C52.0803 7.52891 52.5369 8.19361 52.8261 9.09666C53.1153 9.99985 53.2575 11.2073 53.2575 12.709V14.7385C53.2575 16.2301 53.1153 17.4275 52.8362 18.3306C52.5572 19.2336 52.1007 19.8983 51.4664 20.3143C50.8373 20.7303 49.9798 20.9436 48.8991 20.9436C47.7931 20.9485 46.9205 20.7354 46.2914 20.3092V20.3092ZM49.8276 18.1175C50.0001 17.6609 50.0915 16.915 50.0915 15.8852V11.527C50.0915 10.5223 50.0053 9.79179 49.8276 9.32505C49.6552 8.8633 49.3457 8.62993 48.9042 8.62993C48.4781 8.62993 48.1787 8.8633 48.0012 9.32505C47.8286 9.78667 47.7374 10.5223 47.7374 11.527V15.8852C47.7374 16.9201 47.8185 17.666 47.986 18.1175C48.1534 18.5741 48.4578 18.8024 48.8993 18.8024C49.3457 18.8024 49.6501 18.5741 49.8276 18.1175V18.1175ZM94.7287 14.779V15.4844C94.7287 16.3823 94.7541 17.052 94.81 17.5035C94.8606 17.9501 94.9723 18.2798 95.1397 18.4829C95.3071 18.6857 95.5658 18.7923 95.9158 18.7923C96.3878 18.7923 96.7124 18.6097 96.885 18.2443C97.0575 17.879 97.1537 17.2702 97.1691 16.4179L99.8834 16.5752C99.8987 16.6968 99.9037 16.8643 99.9037 17.0773C99.9037 18.3712 99.5485 19.3351 98.8433 19.9744C98.1381 20.6136 97.1387 20.9333 95.8449 20.9333C94.2924 20.9333 93.2067 20.4462 92.5826 19.4721C91.9585 18.498 91.6491 16.9962 91.6491 14.9567V12.5163C91.6491 10.4158 91.9738 8.8886 92.618 7.91973C93.2624 6.95571 94.3684 6.47364 95.9363 6.47364C97.0169 6.47364 97.8439 6.67161 98.4222 7.06728C99.0006 7.46296 99.4065 8.0768 99.645 8.91404C99.8784 9.75114 100 10.908 100 12.3793V14.7741H94.7287V14.779ZM95.1295 8.89371C94.9721 9.09168 94.8657 9.4163 94.8098 9.86285C94.754 10.3093 94.7287 10.9943 94.7287 11.9023V12.907H97.0321V11.9023C97.0321 11.0042 97.0017 10.3245 96.9407 9.86285C96.8799 9.40109 96.7683 9.07136 96.611 8.88362C96.4536 8.69588 96.2051 8.59951 95.8702 8.59951C95.5354 8.5944 95.2868 8.69588 95.1295 8.89371ZM38.6303 14.5153L35.0485 1.58275H38.1736L39.4269 7.44277C39.7465 8.88873 39.9799 10.1165 40.1321 11.1363H40.2233C40.3299 10.4056 40.5633 9.18293 40.9287 7.46296L42.2274 1.57764H45.3527L41.7303 14.5153V20.7202H38.6303V14.5153ZM63.4197 6.73755V20.7151H60.959L60.685 19.0054H60.619C59.9494 20.2991 58.9448 20.9435 57.6104 20.9435C56.6821 20.9435 55.997 20.6391 55.5557 20.0302C55.1143 19.4213 54.8962 18.4727 54.8962 17.1789V6.73755H58.0418V17.0013C58.0418 17.6253 58.1077 18.0719 58.2447 18.3357C58.3817 18.5994 58.61 18.7365 58.9296 18.7365C59.2036 18.7365 59.4674 18.6552 59.716 18.4879C59.9646 18.3205 60.1523 18.1073 60.2741 17.8486V6.73742L63.4197 6.73755ZM79.5638 6.73755V20.7151H77.1031L76.8291 19.0054H76.7631C76.0934 20.2991 75.0889 20.9435 73.7545 20.9435C72.8262 20.9435 72.1411 20.6391 71.6998 20.0302C71.2584 19.4213 71.0402 18.4727 71.0402 17.1789V6.73755H74.1859V17.0013C74.1859 17.6253 74.2518 18.0719 74.3888 18.3357C74.5257 18.5994 74.7541 18.7365 75.0737 18.7365C75.3477 18.7365 75.6115 18.6552 75.8601 18.4879C76.1087 18.3205 76.2964 18.1073 76.4182 17.8486V6.73742L79.5638 6.73755Z" fill="#282828"/>
<path fill-rule="evenodd" clip-rule="evenodd" d="M71.9738 4.11444H68.8485V20.715H65.7688V4.11444H62.6436V1.58279H71.9687V4.11444H71.9738ZM89.9798 8.97478C89.7871 8.09205 89.4827 7.45278 89.0565 7.0571C88.6304 6.66129 88.047 6.46346 87.301 6.46346C86.7228 6.46346 86.1849 6.62576 85.6826 6.95563C85.1803 7.28024 84.7947 7.71158 84.5207 8.24426H84.4954V0.877441H81.4614V20.7201H84.059L84.3786 19.396H84.4447C84.6882 19.8678 85.0534 20.2382 85.5405 20.5121C86.0275 20.7861 86.5655 20.9231 87.159 20.9231C88.2245 20.9231 89.0057 20.4309 89.5081 19.4517C90.0103 18.4726 90.259 16.9404 90.259 14.8551V12.643C90.2641 11.0803 90.1676 9.85765 89.9798 8.97491V8.97478ZM87.093 14.6775C87.093 15.6974 87.0524 16.4938 86.9663 17.0723C86.885 17.6507 86.743 18.0616 86.5451 18.3052C86.3472 18.5486 86.0834 18.6704 85.7485 18.6704C85.4897 18.6704 85.2514 18.6096 85.0281 18.4878C84.81 18.366 84.6273 18.1834 84.4903 17.9398V9.99977C84.5969 9.61917 84.7795 9.30976 85.0383 9.06629C85.297 8.8227 85.576 8.7009 85.8804 8.7009C86.2001 8.7009 86.4486 8.82768 86.6212 9.07626C86.7937 9.32497 86.9155 9.75106 86.9864 10.3396C87.0525 10.9332 87.0879 11.7755 87.0879 12.8712V14.6775H87.093Z" fill="#282828"/>
</svg>
