<svg width="100" height="33" viewBox="0 0 100 33" fill="none" xmlns="http://www.w3.org/2000/svg">
<path d="M12.3154 0H13.2047C16.2919 0.0671143 19.3289 1.30873 21.5101 3.50672C20.7047 4.32887 19.8826 5.11746 19.094 5.93961C17.8691 4.83223 16.3926 3.97652 14.7819 3.67451C12.3993 3.17115 9.83222 3.62417 7.83557 4.98323C5.65436 6.40941 4.17785 8.82553 3.85906 11.4094C3.50671 13.9598 4.22819 16.6443 5.88926 18.6242C7.48322 20.5537 9.91611 21.7618 12.4329 21.8457C14.7819 21.9799 17.2315 21.2584 18.943 19.6141C20.2852 18.4564 20.906 16.6947 21.1074 14.9833C18.3221 14.9833 15.5369 15 12.7517 14.9833V11.5269H24.4799C25.0839 15.2349 24.2114 19.4128 21.3926 22.0638C19.5134 23.943 16.9128 25.0504 14.2617 25.2685C11.6946 25.5202 9.04362 25.0336 6.76175 23.792C4.02685 22.3323 1.84564 19.8658 0.771812 16.9631C-0.234899 14.2953 -0.251678 11.2752 0.687919 8.59063C1.54362 6.14096 3.18792 3.97652 5.30201 2.46645C7.33222 0.973157 9.79866 0.151007 12.3154 0Z" fill="#3780FF"/>
<path d="M79.5973 0.872559H83.1879V24.8323C81.9966 24.8323 80.7886 24.8491 79.5973 24.8155C79.6141 16.8457 79.5973 8.85913 79.5973 0.872559V0.872559Z" fill="#38B137"/>
<path d="M32.4665 9.17814C34.6812 8.75867 37.0806 9.22847 38.9094 10.554C40.5705 11.7285 41.7282 13.5741 42.0806 15.5875C42.5336 17.9198 41.9631 20.4701 40.453 22.3157C38.8255 24.3795 36.1577 25.4869 33.5571 25.3191C31.1745 25.1849 28.8591 23.9936 27.4497 22.0473C25.8557 19.8996 25.4698 16.9466 26.3423 14.4298C27.2148 11.7285 29.6812 9.66471 32.4665 9.17814V9.17814ZM32.9698 12.3661C32.0638 12.601 31.2248 13.1211 30.6208 13.8593C28.9933 15.8057 29.094 18.9768 30.8893 20.7889C31.9128 21.8292 33.4564 22.3157 34.8826 22.0305C36.2081 21.7956 37.3658 20.9063 38.0034 19.7318C39.1108 17.7352 38.792 14.9835 37.0973 13.4231C36.0067 12.4164 34.4128 11.9969 32.9698 12.3661Z" fill="#FA3913"/>
<path d="M50.2517 9.1779C52.7852 8.69133 55.5537 9.39602 57.4497 11.1745C60.5369 13.943 60.8725 19.1276 58.2383 22.3155C56.6443 24.3289 54.0604 25.4363 51.5101 25.3188C49.0772 25.2517 46.6779 24.0437 45.2349 22.047C43.6074 19.849 43.2551 16.8289 44.1779 14.2618C45.1007 11.6443 47.5168 9.6477 50.2517 9.1779V9.1779ZM50.755 12.3658C49.849 12.6007 49.0101 13.1209 48.4061 13.8423C46.7953 15.7551 46.8624 18.8759 48.5906 20.7047C49.6141 21.7953 51.2081 22.3322 52.6846 22.0302C53.9933 21.7786 55.1678 20.9061 55.8054 19.7316C56.896 17.7182 56.5772 14.9665 54.8658 13.4061C53.7752 12.3994 52.1812 11.9967 50.755 12.3658Z" fill="#FCBD06"/>
<path d="M65.3355 10.1511C67.265 8.94304 69.8322 8.60747 71.9127 9.64774C72.5671 9.93297 73.104 10.4195 73.6241 10.9061C73.6409 10.4531 73.6241 9.98331 73.6409 9.51351C74.7651 9.53029 75.8892 9.51351 77.0302 9.53029V24.3289C77.0134 26.5605 76.4429 28.9262 74.8322 30.5537C73.0704 32.349 70.3691 32.9027 67.9362 32.5336C65.3355 32.1477 63.0704 30.2517 62.0637 27.8524C63.0704 27.3658 64.1275 26.9799 65.1677 26.5269C65.755 27.9027 66.9463 29.0772 68.4395 29.3457C69.9328 29.6142 71.661 29.245 72.6342 28.0034C73.6744 26.7283 73.6744 24.9833 73.6241 23.4229C72.8523 24.1779 71.963 24.8491 70.8892 25.1007C68.557 25.7551 65.9899 24.9497 64.1946 23.3726C62.3825 21.7954 61.3087 19.3625 61.4093 16.9464C61.4597 14.2115 63.0033 11.5773 65.3355 10.1511V10.1511ZM68.8087 12.2987C67.7852 12.4665 66.8288 13.037 66.1744 13.8256C64.5973 15.7048 64.5973 18.7081 66.1912 20.5538C67.0973 21.6444 68.557 22.2484 69.9664 22.0974C71.2919 21.9632 72.5167 21.1242 73.1711 19.9665C74.2785 18.0034 74.0939 15.3356 72.6006 13.6242C71.6778 12.5672 70.2013 12.0471 68.8087 12.2987V12.2987Z" fill="#3780FF"/>
<path d="M87.5 11.007C89.5135 9.12782 92.6175 8.49024 95.2014 9.48017C97.6511 10.403 99.2115 12.7352 100 15.1345C96.3591 16.6446 92.7349 18.1379 89.094 19.648C89.5973 20.6043 90.3692 21.4768 91.4094 21.8292C92.8692 22.3493 94.6141 22.1647 95.839 21.1916C96.3256 20.8225 96.7115 20.3359 97.0806 19.8661C98.0034 20.4869 98.9262 21.0909 99.849 21.7117C98.5403 23.6748 96.3423 25.0506 93.9765 25.2688C91.3591 25.5876 88.5739 24.5809 86.8792 22.5339C84.094 19.3124 84.3624 13.9097 87.5 11.007V11.007ZM89.2953 14.111C88.7249 14.9332 88.49 15.9399 88.5067 16.9298C90.9396 15.9231 93.3725 14.9164 95.8054 13.8929C95.4027 12.9533 94.4296 12.3829 93.4396 12.2319C91.8457 11.9466 90.1846 12.8023 89.2953 14.111V14.111Z" fill="#FA3913"/>
</svg>
