<svg width="100" height="20" viewBox="0 0 100 20" fill="none" xmlns="http://www.w3.org/2000/svg">
<path d="M15.87 0H0V3.86L1.45 9.6L6 9.86L9.86 6L17.5 4.36L15.87 0Z" fill="#00C425"/>
<path d="M0 3.85986V19.7299H3.86L10.32 19.1899L9.87 13.7199L0 3.85986V3.85986Z" fill="#3AF23A"/>
<path d="M3.85742 19.7294H19.7274V15.8694L18.0374 10.7294L13.7174 9.85938L3.85742 19.7294Z" fill="#006446"/>
<path d="M95.6295 7.82965L92.1395 10.9997L95.6295 14.1898V16.0298H95.5194L90.3395 11.3297V15.7998H88.8395V2.27953H90.3395V10.7297L95.4895 6.03961H95.6295V7.82965V7.82965ZM27.9395 15.7998H35.5995V14.2898H29.4995V2.71954H27.9395V15.7998ZM40.8995 6.04962C38.5495 6.04962 36.4095 7.95966 36.4095 11.0397C36.4095 14.0298 38.3695 16.0098 41.1895 16.0098C42.4495 16.0098 43.6095 15.6898 44.6595 14.9298V13.3198C43.5595 14.2398 42.3395 14.6298 41.2395 14.6298C39.5495 14.6298 38.0495 13.5798 37.9095 11.6197H45.0495C45.0695 11.4297 45.1095 11.0097 45.1095 10.8497C45.1095 7.69965 43.2095 6.04962 40.8995 6.04962V6.04962ZM40.9095 7.41965C42.2395 7.41965 43.5895 8.27967 43.6395 10.3097H37.8995C37.9895 8.73968 39.1995 7.41965 40.9095 7.41965ZM66.0995 6.04962C64.8295 6.04962 63.9095 6.71963 63.3595 7.70965C62.8995 6.64963 62.0495 6.04962 60.6895 6.04962C59.4995 6.04962 58.6195 6.73963 58.1395 7.65965H58.0995L57.9195 6.23962H56.7295V15.7898H58.2495V9.7597C58.2495 8.58967 58.9795 7.49965 60.2995 7.49965C61.5895 7.49965 62.1595 8.25966 62.1595 9.63969V15.7998H63.6795V9.6597C63.6795 8.54967 64.4195 7.49965 65.7195 7.49965C67.0295 7.49965 67.5895 8.25966 67.5895 9.63969V15.7998H69.1095V9.42969C69.1195 7.42964 68.1895 6.04962 66.0995 6.04962V6.04962ZM75.2695 6.04962C72.9895 6.04962 70.8595 7.97966 70.8595 11.0397C70.8595 14.0598 72.9795 16.0098 75.2695 16.0098C76.6995 16.0098 78.0495 15.3398 78.7695 14.0098H78.7895L78.9695 15.7998H80.2094V6.24962H78.9695L78.7895 8.03966H78.7695C78.0495 6.72963 76.6995 6.04962 75.2695 6.04962ZM75.5495 7.46965C77.3495 7.46965 78.7195 8.91968 78.7195 11.0297C78.7195 13.1298 77.3595 14.5898 75.5495 14.5898C73.7795 14.5898 72.3795 13.1598 72.3795 11.0497C72.3795 8.89968 73.7795 7.46965 75.5495 7.46965V7.46965ZM86.6895 6.13962C85.8595 6.13962 84.5995 6.52963 83.9495 7.76965H83.9295L83.7695 6.24962H82.5495V15.7998H84.0695V10.2997C84.0695 8.08966 85.8595 7.39965 87.3295 7.69965V6.18962C87.1295 6.15962 86.9395 6.13962 86.6895 6.13962V6.13962ZM54.7795 6.02961H54.6595L50.6695 10.0097L46.6895 6.02961H46.5695V7.95966L49.6395 11.0297L46.5695 14.0798V16.0298H46.6895L50.6495 12.0297L54.6595 16.0298H54.7795V14.0698L51.6795 10.9997L54.7795 7.87965V6.02961V6.02961ZM95.6295 2.48954V2.27953H97.2895V2.48954H96.5895V4.14957H96.3395V2.47954C96.3295 2.48954 95.6295 2.48954 95.6295 2.48954V2.48954ZM98.1295 2.27953L98.8495 3.85957L99.5694 2.27953H99.9094V4.14957H99.6694V2.57954L98.9495 4.14957H98.7395L98.0295 2.57954V4.14957H97.7895V2.26953H98.1295V2.27953Z" fill="#32323C"/>
<path d="M19.733 15.87V0H15.873L9.87305 6L19.733 15.87Z" fill="#008A44"/>
</svg>
