<svg width="100" height="22" viewBox="0 0 100 22" fill="none" xmlns="http://www.w3.org/2000/svg">
<path d="M100 9.65775V7.89909H97.8161V5.16504L97.7425 5.18767L95.6913 5.8153L95.6508 5.82758V7.89918H92.4132V6.74512C92.4132 6.20775 92.5333 5.79653 92.7701 5.52228C93.0053 5.25132 93.3417 5.11357 93.7707 5.11357C94.0791 5.11357 94.3984 5.18622 94.7198 5.32949L94.8003 5.36547V3.51337L94.7624 3.49944C94.4626 3.39167 94.0549 3.3374 93.5494 3.3374C92.9124 3.3374 92.3337 3.47603 91.8289 3.75076C91.3239 4.02587 90.9266 4.41862 90.6483 4.91797C90.3709 5.41674 90.2302 5.99281 90.2302 6.6303V7.89909H88.7095V9.65775H90.2302V17.0667H92.4132V9.65775H95.6508V14.366C95.6508 16.3051 96.5655 17.2877 98.3693 17.2877C98.6657 17.2877 98.9777 17.253 99.2962 17.185C99.6205 17.1151 99.8413 17.0454 99.9713 16.9709L100 16.9539V15.179L99.9113 15.2377C99.7928 15.3166 99.6452 15.3811 99.4723 15.4291C99.2985 15.478 99.1534 15.5024 99.041 15.5024C98.6185 15.5024 98.3058 15.3886 98.1119 15.1639C97.9157 14.9371 97.8162 14.5406 97.8162 13.9859V9.65775H100ZM83.8344 15.5027C83.042 15.5027 82.4173 15.24 81.9771 14.7225C81.5341 14.2023 81.3097 13.4607 81.3097 12.5185C81.3097 11.5464 81.5341 10.7856 81.9773 10.2563C82.4178 9.7304 83.0365 9.4635 83.8166 9.4635C84.5736 9.4635 85.1761 9.7184 85.6078 10.2215C86.0415 10.7273 86.2617 11.482 86.2617 12.4654C86.2617 13.4609 86.0547 14.2256 85.6464 14.7372C85.241 15.2448 84.6314 15.5027 83.8344 15.5027V15.5027ZM83.9314 7.67824C82.4197 7.67824 81.2191 8.12119 80.363 8.99482C79.5074 9.86853 79.0737 11.0776 79.0737 12.5888C79.0737 14.0242 79.4971 15.1788 80.3323 16.0199C81.1675 16.8613 82.3041 17.2875 83.7104 17.2875C85.1757 17.2875 86.3525 16.8384 87.2082 15.9526C88.0639 15.0679 88.4973 13.8702 88.4973 12.3943C88.4973 10.9365 88.0906 9.77335 87.288 8.93784C86.485 8.10194 85.3555 7.67824 83.9314 7.67824V7.67824ZM75.5539 7.67824C74.5256 7.67824 73.675 7.94126 73.0253 8.45987C72.3715 8.98156 72.0399 9.66578 72.0399 10.4937C72.0399 10.9241 72.1115 11.3064 72.2524 11.6307C72.3941 11.956 72.6134 12.2424 72.9047 12.4828C73.1939 12.7213 73.6402 12.9711 74.2317 13.2252C74.7289 13.4298 75.0997 13.6028 75.3352 13.7392C75.5655 13.8729 75.7288 14.0073 75.8211 14.1382C75.9108 14.2663 75.9563 14.4415 75.9563 14.6578C75.9563 15.2738 75.495 15.5734 74.546 15.5734C74.1939 15.5734 73.7924 15.4999 73.3525 15.355C72.9158 15.2123 72.5036 15.0033 72.1304 14.7353L72.0397 14.6703V16.7721L72.073 16.7876C72.3819 16.9302 72.7713 17.0504 73.2304 17.145C73.6885 17.2397 74.1047 17.2879 74.4663 17.2879C75.5822 17.2879 76.4808 17.0236 77.1364 16.5019C77.7963 15.9766 78.1307 15.2763 78.1307 14.4197C78.1307 13.8017 77.9507 13.2718 77.5958 12.8444C77.2434 12.4205 76.6318 12.0314 75.7787 11.6874C75.099 11.4146 74.6636 11.1881 74.4839 11.0143C74.3108 10.8463 74.2229 10.6089 74.2229 10.3081C74.2229 10.0415 74.3314 9.82791 74.5542 9.65494C74.7787 9.48111 75.0913 9.39269 75.4832 9.39269C75.847 9.39269 76.2191 9.45015 76.5892 9.56275C76.959 9.67535 77.2839 9.82616 77.555 10.0106L77.6442 10.0716V8.07785L77.61 8.06315C77.3598 7.95587 77.0299 7.86407 76.6292 7.78958C76.2304 7.71558 75.8686 7.67824 75.5539 7.67824V7.67824ZM66.3489 15.5027C65.5567 15.5027 64.9318 15.24 64.4917 14.7225C64.0486 14.2023 63.8246 13.4609 63.8246 12.5185C63.8246 11.5464 64.0489 10.7856 64.4921 10.2563C64.9323 9.7304 65.5509 9.4635 66.3314 9.4635C67.088 9.4635 67.6906 9.7184 68.1223 10.2215C68.5562 10.7273 68.7763 11.482 68.7763 12.4654C68.7763 13.4609 68.5692 14.2256 68.1609 14.7372C67.7555 15.2448 67.1462 15.5027 66.3489 15.5027V15.5027ZM66.4462 7.67824C64.9341 7.67824 63.7333 8.12119 62.8777 8.99482C62.0222 9.86853 61.5881 11.0776 61.5881 12.5888C61.5881 14.0248 62.0118 15.1788 62.8471 16.0199C63.6823 16.8613 64.8188 17.2875 66.2251 17.2875C67.6902 17.2875 68.8673 16.8384 69.723 15.9526C70.5784 15.0679 71.0121 13.8702 71.0121 12.3943C71.0121 10.9365 70.6052 9.77335 69.8024 8.93784C68.9992 8.10194 67.87 7.67824 66.4462 7.67824V7.67824ZM58.2744 9.48672V7.89909H56.1179V17.0665H58.2744V12.377C58.2744 11.5796 58.4552 10.9245 58.8119 10.4297C59.1641 9.9408 59.6335 9.69306 60.2066 9.69306C60.4008 9.69306 60.6189 9.72508 60.855 9.78844C61.0887 9.85141 61.258 9.91981 61.3578 9.99178L61.4485 10.0575V7.88342L61.4135 7.86842C61.2127 7.7831 60.9286 7.74005 60.5691 7.74005C60.0272 7.74005 59.5423 7.91418 59.1269 8.25701C58.7623 8.55834 58.4988 8.9715 58.2973 9.48672H58.2744ZM52.2562 7.67824C51.2669 7.67824 50.3844 7.89038 49.6339 8.30857C48.8817 8.72773 48.3001 9.32614 47.9043 10.0871C47.5103 10.8461 47.3103 11.7328 47.3103 12.7217C47.3103 13.5878 47.5042 14.3827 47.8876 15.0833C48.2711 15.785 48.814 16.334 49.5012 16.7147C50.1875 17.095 50.9806 17.2878 51.8588 17.2878C52.8836 17.2878 53.7586 17.0829 54.4601 16.6788L54.4884 16.6626V14.687L54.3978 14.7531C54.08 14.9846 53.7249 15.1694 53.3428 15.3025C52.9617 15.4355 52.6142 15.5027 52.3095 15.5027C51.4633 15.5027 50.784 15.238 50.291 14.716C49.7969 14.1933 49.5463 13.4594 49.5463 12.5358C49.5463 11.6065 49.8076 10.8537 50.3225 10.2982C50.8359 9.74442 51.5164 9.4635 52.3451 9.4635C53.0538 9.4635 53.7445 9.7035 54.398 10.1775L54.4884 10.2432V8.16153L54.4592 8.14509C54.2133 8.00743 53.8779 7.89377 53.4616 7.80757C53.047 7.72158 52.6415 7.67824 52.2562 7.67824V7.67824ZM45.8251 7.89918H43.6687V17.0665H45.8251V7.89918V7.89918ZM44.7689 3.99385C44.414 3.99385 44.1045 4.11468 43.8501 4.3541C43.5948 4.5942 43.4652 4.8965 43.4652 5.25326C43.4652 5.60441 43.5932 5.9012 43.8462 6.13491C44.0975 6.36795 44.408 6.48606 44.769 6.48606C45.13 6.48606 45.4416 6.36795 45.696 6.1353C45.9519 5.9012 46.0817 5.60451 46.0817 5.25326C46.0817 4.90898 45.9554 4.60977 45.7065 4.36377C45.4578 4.11826 45.1422 3.99385 44.7689 3.99385ZM39.3885 7.2228V17.0665H41.5892V4.27448H38.5433L34.6718 13.776L30.9147 4.27448H27.7448V17.0664H29.8129V7.22184H29.8839L33.8513 17.0665H35.412L39.3175 7.2228H39.3885V7.2228Z" fill="#706D6E"/>
<path d="M10.1445 10.1445H0V0H10.1445V10.1445Z" fill="#F1511B"/>
<path d="M21.3451 10.1445H11.2008V0H21.3451V10.1445Z" fill="#80CC28"/>
<path d="M10.1442 21.3489H0V11.2046H10.1442V21.3489Z" fill="#00ADEF"/>
<path d="M21.3451 21.3489H11.2008V11.2046H21.3451V21.3489Z" fill="#FBBC09"/>
</svg>
