<svg width="89" height="21" viewBox="0 0 89 21" fill="none" xmlns="http://www.w3.org/2000/svg">
<path d="M39.8402 0C41.3135 0.0201824 42.807 0.0201824 44.2804 0C44.2602 1.31186 44.2602 2.6439 44.2804 3.95576C42.807 3.93558 41.3135 3.95576 39.82 3.93558C39.8604 2.62372 39.82 1.31186 39.8402 0V0ZM17.4982 5.65108C20.5256 3.93558 24.9254 4.52087 26.9638 7.48769C28.2151 9.24356 28.5784 11.4636 28.5582 13.5626C25.0868 13.5828 21.6154 13.5626 18.144 13.5828C18.3055 14.6525 18.7697 15.7827 19.7586 16.3478C21.1714 17.1753 23.3915 16.9331 24.0979 15.2983C25.5308 15.2579 26.9436 15.2579 28.3766 15.2983C27.9326 16.9331 26.7418 18.3257 25.2483 19.0926C23.6337 19.9806 21.6962 20.1421 19.8999 19.8393C18.0028 19.5366 16.2469 18.4669 15.1772 16.8725C14.0066 15.1772 13.7039 13.0177 13.9663 11.0196C14.2286 8.81973 15.5405 6.74094 17.4982 5.65108V5.65108ZM19.8596 8.17389C18.8706 8.63808 18.3862 9.70775 18.1642 10.7371H24.0979C23.9768 9.94994 23.6942 9.12246 23.0888 8.57754C22.2411 7.75006 20.8889 7.72987 19.8596 8.17389V8.17389ZM64.039 4.88415C66.4205 4.46032 69.0644 4.96488 70.901 6.61984C74.0293 9.40502 74.1706 14.7937 71.2643 17.7807C68.9635 20.1824 65.1087 20.6265 62.162 19.2742C59.8814 18.2449 58.3274 15.9239 58.065 13.4617C57.9641 12.0287 58.0246 10.5554 58.6099 9.22338C59.4979 6.94276 61.6575 5.2878 64.039 4.88415V4.88415ZM64.5436 8.17389C63.2922 8.6179 62.707 9.97013 62.5253 11.2013C62.384 12.7351 62.4042 14.4708 63.3932 15.7423C64.4628 17.1349 66.8242 17.0945 67.8939 15.7221C68.7819 14.6121 68.9232 13.0984 68.8223 11.726C68.7617 10.5151 68.3379 9.22338 67.3287 8.47663C66.5215 7.9317 65.4518 7.85097 64.5436 8.17389V8.17389ZM79.8822 5.71163C81.3556 4.56123 83.4545 4.44014 85.1499 5.12634C86.3608 5.65108 87.269 6.72075 87.6929 7.95188C88.1772 9.22338 88.036 10.5958 88.036 11.9278C88.036 14.4708 88.0158 17.0138 88.0562 19.5366C86.5828 19.5568 85.1095 19.5366 83.616 19.5568V10.838C83.616 10.0912 83.3335 9.28392 82.7078 8.81973C81.7592 8.17389 80.3868 8.29498 79.5795 9.10228C78.9337 9.74812 78.6511 10.6765 78.6713 11.5645V19.5568C77.2182 19.5366 75.7448 19.5568 74.2917 19.5366C74.2917 14.7332 74.3119 9.92976 74.2917 5.12634C75.7247 5.14652 77.1374 5.10616 78.5704 5.14652C78.5502 5.81254 78.5502 6.47856 78.53 7.14458C78.974 6.66021 79.3373 6.11528 79.8822 5.71163V5.71163ZM0 5.16671H4.6016C5.53 8.25462 6.51894 11.3425 7.38679 14.4506C8.45646 11.4031 9.26376 8.25462 10.2729 5.16671C11.7462 5.14652 13.2397 5.16671 14.713 5.14652C13.0177 9.94994 11.3627 14.7534 9.68759 19.5568C8.15372 19.5568 6.61985 19.5366 5.08598 19.577C3.33011 14.7937 1.77606 9.92976 0 5.16671ZM29.5673 5.14652H33.8057C33.7855 5.95382 33.8057 6.76112 33.7653 7.56842C34.1286 7.16477 34.3909 6.66021 34.7744 6.27674C35.723 5.22725 37.277 4.80342 38.6494 5.16671C38.6293 6.4382 38.6293 7.70969 38.6494 8.961C37.5596 8.83991 36.3486 8.88027 35.4202 9.5463C34.4313 10.2325 33.9873 11.504 34.0075 12.6746C33.9873 14.9754 34.0075 17.256 34.0075 19.5568C32.5342 19.5568 31.0407 19.5366 29.5673 19.577C29.5875 14.7534 29.5875 9.94994 29.5673 5.14652V5.14652ZM39.8402 5.16671C41.3337 5.14652 42.807 5.16671 44.3005 5.14652C44.2804 9.94994 44.3005 14.7534 44.3005 19.5568C42.8272 19.5366 41.3337 19.5568 39.8402 19.5568V5.16671ZM45.4913 5.14652C49.5076 5.16671 53.5239 5.14652 57.5201 5.16671C57.4797 6.27674 57.5201 7.36659 57.4999 8.47663C57.3586 8.75918 57.1164 8.961 56.9348 9.20319C54.8762 11.4838 52.8579 13.825 50.7589 16.0854C53.1203 16.1258 55.4816 16.0854 57.843 16.1056V19.577C53.7258 19.5568 49.6085 19.5568 45.4913 19.577V16.2267C47.6508 13.8048 49.7902 11.4031 51.9699 9.00137C52.0304 8.88027 52.2928 8.75918 52.1515 8.59772C49.9315 8.65827 47.7114 8.59772 45.4913 8.63809V5.14652V5.14652Z" fill="black"/>
</svg>
