<svg width="100" height="21" viewBox="0 0 100 21" fill="none" xmlns="http://www.w3.org/2000/svg">
<path d="M41.9125 4.42728C40.1069 4.42728 38.0533 5.26425 36.7986 6.94001L36.7994 6.93678L36.7986 6.93759L36.7994 4.69031H32.4927V20.3738H36.7986V11.4497C36.7986 9.84365 38.0438 8.13617 40.3497 8.13617C42.1315 8.13617 43.9756 9.37577 43.9756 11.4497V20.3738H48.2822V10.6517C48.2822 7.04445 45.7014 4.42728 41.9125 4.42728V4.42728ZM78.8909 4.69112L74.9976 15.3742L71.1042 4.69112H66.1846L72.6376 20.3695H77.3568L83.8097 4.69112H78.8909ZM19.6358 9.41577C20.3691 8.43092 21.5374 7.85274 22.9483 7.85274C24.5002 7.85274 25.6776 8.739 26.2863 10.0473L18.7622 13.1689C18.5568 11.5669 18.9667 10.314 19.6358 9.41577V9.41577ZM27.9095 15.5519C26.097 16.8934 25.0614 17.2134 23.4085 17.2134C21.921 17.2134 20.7564 16.7515 19.9354 15.9416L30.9455 11.3742C30.705 9.67213 30.059 8.15153 29.065 6.99536C27.6184 5.31536 25.4772 4.42647 22.8701 4.42647C18.1347 4.42647 14.564 7.91981 14.564 12.534C14.564 17.2677 18.1432 20.6404 23.3448 20.6404C26.2592 20.6404 29.239 19.2592 30.6329 17.6455L27.9095 15.5519ZM14.1535 16.4194H4.36545V0H0V20.3738H14.1535V16.4194ZM91.5428 8.11698C89.1378 8.11698 87.3913 9.93961 87.3913 12.5323C87.3913 15.0079 89.2412 16.9477 91.6006 16.9477C94.0065 16.9477 95.7519 15.075 95.7519 12.5323C95.7519 10.0568 93.9028 8.11698 91.5428 8.11698V8.11698ZM91.5428 20.6382C86.8329 20.6382 83.1424 17.1293 83.1424 12.5323C83.1424 7.98688 86.8584 4.42647 91.6006 4.42647C96.3105 4.42647 100 7.93516 100 12.5323C100 17.0768 96.2848 20.638 91.5428 20.638V20.6382ZM58.3855 8.11698C55.9804 8.11698 54.235 9.93961 54.235 12.5323C54.235 15.0079 56.084 16.9477 58.444 16.9477C60.8491 16.9477 62.5945 15.075 62.5945 12.5323C62.5945 10.0568 60.7455 8.11698 58.3855 8.11698ZM58.3855 20.6382C53.6756 20.6382 49.9861 17.1293 49.9861 12.5323C49.9861 7.98688 53.701 4.42647 58.444 4.42647C63.1531 4.42647 66.8434 7.93516 66.8434 12.5323C66.8434 17.0768 63.1277 20.638 58.3855 20.638" fill="#E60012"/>
</svg>
