<svg width="100" height="28" viewBox="0 0 100 28" fill="none" xmlns="http://www.w3.org/2000/svg">
<path d="M13.7503 25.2836C12.246 25.5478 10.7152 25.627 9.13174 25.8379L4.30186 11.6918V26.4451C2.79756 26.6034 1.4252 26.8145 0 27.0256V0H4.01172L9.50117 15.3341V0H13.7503V25.2836ZM22.0639 9.89709C23.7003 9.89709 26.2075 9.81789 27.7118 9.81789V14.0406C25.8379 14.0406 23.6475 14.0406 22.0639 14.1198V20.4012C24.5448 20.2429 27.0257 20.0316 29.5328 19.9524V24.0166L17.841 24.9405V0H29.5328V4.22276H22.0639V9.89709ZM45.2361 4.22286H40.8551V23.6475C39.4299 23.6475 38.0047 23.6475 36.6325 23.7001V4.22286H32.2515V0H45.2363L45.2361 4.22286V4.22286ZM52.098 9.60686H57.878V13.8295H52.098V23.41H47.9542V0H59.7519V4.22276H52.098V9.60686ZM66.6138 19.715C69.0155 19.7676 71.4435 19.9527 73.7925 20.0844V24.2544C70.0185 24.0167 66.2443 23.7795 62.3911 23.7001V0H66.6138V19.715ZM77.3554 24.5448C78.7014 24.6241 80.1266 24.7033 81.4989 24.8614V0H77.3554V24.5448ZM100 0L94.6423 12.8531L100 27.0256C98.4163 26.8145 96.8328 26.5242 95.2492 26.2602L92.2143 18.4483L89.1267 25.627C87.5956 25.3628 86.1177 25.2836 84.5872 25.0725L90.0239 12.6946L85.1148 0H89.6541L92.4253 7.09953L95.3813 0H100Z" fill="#D81F26"/>
</svg>
