<svg width="48" height="48" viewBox="0 0 48 48" fill="none" xmlns="http://www.w3.org/2000/svg">
<path d="M15.254 22.758C12.12 22.758 10 20.574 10 17.338C10 14.426 12.432 12 15.726 12C19.334 12 22 14.912 22 19.36C22 29.47 14.628 33.514 10 34V29.552C13.138 28.986 16.666 25.832 16.824 22.352C16.666 22.432 16.04 22.758 15.254 22.758Z" fill="#FF6636"/>
<path d="M31.254 22.758C28.118 22.758 26 20.574 26 17.338C26 14.426 28.432 12 31.726 12C35.334 12 38 14.912 38 19.36C38 29.47 30.628 33.514 26 34V29.552C29.138 28.986 32.666 25.832 32.824 22.352C32.666 22.432 32.04 22.758 31.254 22.758Z" fill="#FF6636"/>
</svg>
